<?xml version="1.0" encoding="UTF-8" standalone="no"?>
<!-- Created with Inkscape (http://www.inkscape.org/) -->

<svg
   xmlns:osb="http://www.openswatchbook.org/uri/2009/osb"
   xmlns:dc="http://purl.org/dc/elements/1.1/"
   xmlns:cc="http://creativecommons.org/ns#"
   xmlns:rdf="http://www.w3.org/1999/02/22-rdf-syntax-ns#"
   xmlns:svg="http://www.w3.org/2000/svg"
   xmlns="http://www.w3.org/2000/svg"
   xmlns:sodipodi="http://sodipodi.sourceforge.net/DTD/sodipodi-0.dtd"
   xmlns:inkscape="http://www.inkscape.org/namespaces/inkscape"
   width="512"
   height="512"
   viewBox="0 0 512 512.00002"
   version="1.1"
   id="svg8"
   sodipodi:docname="H-logo.svg"
   enable-background="new"
   inkscape:version="0.92.3 (2405546, 2018-03-11)"
   inkscape:export-filename="/home/mqz/Documentos/H/H-logo.png"
   inkscape:export-xdpi="96"
   inkscape:export-ydpi="96">
  <defs
     id="defs2">
    <linearGradient
       id="linearGradient1534"
       osb:paint="solid">
      <stop
         style="stop-color:#0055d4;stop-opacity:1;"
         offset="0"
         id="stop1532" />
    </linearGradient>
    <filter
       inkscape:collect="always"
       style="color-interpolation-filters:sRGB"
       id="filter949">
      <feBlend
         inkscape:collect="always"
         mode="screen"
         in2="BackgroundImage"
         id="feBlend951" />
    </filter>
  </defs>
  <sodipodi:namedview
     id="base"
     pagecolor="#ffffff"
     bordercolor="#666666"
     borderopacity="1.0"
     inkscape:pageopacity="0.0"
     inkscape:pageshadow="2"
     inkscape:zoom="0.7"
     inkscape:cx="233.95245"
     inkscape:cy="259.44714"
     inkscape:document-units="px"
     inkscape:current-layer="layer1"
     showgrid="false"
     units="px"
     borderlayer="true"
     inkscape:showpageshadow="false"
     inkscape:pagecheckerboard="true"
     showguides="true"
     inkscape:guide-bbox="true"
     objecttolerance="1"
     guidetolerance="1"
     gridtolerance="1"
     inkscape:window-width="1366"
     inkscape:window-height="713"
     inkscape:window-x="0"
     inkscape:window-y="27"
     inkscape:window-maximized="1" />
  <metadata
     id="metadata5">
    <rdf:RDF>
      <cc:Work
         rdf:about="">
        <dc:format>image/svg+xml</dc:format>
        <dc:type
           rdf:resource="http://purl.org/dc/dcmitype/StillImage" />
        <dc:title></dc:title>
      </cc:Work>
    </rdf:RDF>
  </metadata>
  <g
     inkscape:label="Capa 1"
     inkscape:groupmode="layer"
     id="layer1"
     transform="translate(0,-610.51965)"
     style="filter:url(#filter949);opacity:1">
    <circle
       style="fill:#0055d4;fill-opacity:1;stroke:none;stroke-width:1.29464281;stroke-linecap:round;stroke-linejoin:bevel;stroke-miterlimit:4;stroke-dasharray:none;stroke-dashoffset:0;stroke-opacity:1"
       id="path1530"
       cx="-98.571426"
       cy="207.71428"
       r="41.42857"
       transform="matrix(6.1793106,0,0,6.1793106,865.10346,-417.0114)" />
    <path
       style="fill:none;stroke:#e3fffc;stroke-width:6.00261204;stroke-linecap:round;stroke-linejoin:bevel;stroke-miterlimit:4;stroke-dasharray:none;stroke-dashoffset:0;stroke-opacity:1;opacity:1"
       d="m 4,256 h 60.018417 8.002302 8.002302 8.002302 8.002302 l 8.002305,-16 8.0023,32 8.0023,-48 8.0023,64 8.00231,-184 8.0023,304 8.0023,-312 8.0023,320 8.0023,-320.000005 L 176.05065,416 l 8.0023,-312 8.0023,304 8.0023,-184 8.0023,64 8.00231,-64 8.0023,56 8.0023,-48 8.0023,40 8.00231,-32 8.0023,32 8.0023,-32 8.0023,32 8.0023,-40 8.00231,48 8.00231,-56 8.0023,64 8.0023,-64 8.0023,184 8.0023,-304 8.0023,312 8.0023,-319.999995 L 352.1013,416 l 8.0023,-320 8.0023,312 8.0023,-304 8.0023,184 8.0023,-64 8.0023,48 8.0023,-32 8.00231,16.00001 h 8.0023 8.00231 8.0023 8.0023 H 508"
       id="path973"
       inkscape:connector-curvature="0"
       transform="matrix(0.99977061,0,0,0.99935913,0.00175268,610.78627)"
       sodipodi:nodetypes="ccccccccccccccccccccccccccccccccccccccccccccccccccc" />
    <circle
       style="fill:none;fill-opacity:0.6255319;stroke:#1c1f24;stroke-width:36.95237732;stroke-linecap:round;stroke-linejoin:bevel;stroke-miterlimit:4;stroke-dasharray:none;stroke-dashoffset:0;stroke-opacity:1"
       id="path1526"
       cx="-348.57144"
       cy="209.14285"
       r="277.14285"
       transform="matrix(0.8659794,0,0,0.8659794,557.85569,685.40625)" />
  </g>
</svg>
